<?xml version="1.0" encoding="utf-8"?>
<!-- Generator: Adobe Illustrator 18.1.1, SVG Export Plug-In . SVG Version: 6.00 Build 0)  -->
<svg version="1.1" id="brush" xmlns="http://www.w3.org/2000/svg" xmlns:xlink="http://www.w3.org/1999/xlink" x="0px" y="0px"
	 width="75px" height="50px" viewBox="0 0 75 50" enable-background="new 0 0 75 50" xml:space="preserve">
<path d="M75.4,8.9H31.7c-1.4,0-2.8,0.4-3.9,1.2L8.2,22.8c-0.7,0.5-1.1,1.2-1.1,2.1c0,0.8,0.4,1.6,1.1,2.1l18.9,12.4
	c1.2,1,2.8,1.7,4.5,1.7h43.7c3.8,0,6.9-3.1,6.9-6.9V15.8C82.3,12,79.2,8.9,75.4,8.9z M17.7,22.6l7-4.5v13.8l-7-4.6
	c0-0.1,0-0.1,0-0.2v-4.3C17.8,22.7,17.8,22.6,17.7,22.6z M29.7,23.1h47.5v3.8H29.7V23.1z M77.3,15.8v2.2H29.7v-2.2
	c0-0.7,0.3-1.2,0.8-1.6c0,0,0,0,0,0c0.3-0.2,0.7-0.3,1.1-0.3h43.7C76.4,13.9,77.3,14.8,77.3,15.8z M75.4,36.1H31.7
	c-1.1,0-1.9-0.9-1.9-1.9v-2.3h47.5v2.3C77.3,35.2,76.4,36.1,75.4,36.1z"/>
</svg>
