<?xml version="1.0" encoding="utf-8"?>
<!-- Generator: Adobe Illustrator 18.1.1, SVG Export Plug-In . SVG Version: 6.00 Build 0)  -->
<svg version="1.1" id="brush" xmlns="http://www.w3.org/2000/svg" xmlns:xlink="http://www.w3.org/1999/xlink" x="0px" y="0px"
	 width="75px" height="50px" viewBox="0 0 75 50" enable-background="new 0 0 75 50" xml:space="preserve">
<path d="M75.9,8.9H37.6c-2.6,0-4.9,1.9-5.4,4.3h-4.4c-2.5,0-4.5,2-5.3,4.9h-13c-0.8,0-1.6,0.4-2.1,1.1c-0.5,0.7-0.5,1.6-0.2,2.4
	l4.3,9.7c0.4,0.9,1.3,1.5,2.3,1.5h8.6c0.7,3,2.8,5.1,5.3,5.1h4.8c0.9,1.8,2.8,3.1,5,3.1h38.4c3.1,0,5.6-2.5,5.6-5.6v-21
	C81.5,11.4,79,8.9,75.9,8.9z M27.1,30.6v-0.2v-9.7c0-1.4,0.5-2.2,0.7-2.4H32V33h-4.1C27.6,32.8,27.1,31.9,27.1,30.6z M76.5,35.5
	c0,0.3-0.3,0.6-0.6,0.6H37.6c-0.3,0-0.6-0.3-0.6-0.6v-21c0-0.3,0.3-0.6,0.6-0.6h38.4c0.3,0,0.6,0.3,0.6,0.6V35.5z"/>
</svg>
