<?xml version="1.0" encoding="utf-8"?>
<!-- Generator: Adobe Illustrator 18.1.1, SVG Export Plug-In . SVG Version: 6.00 Build 0)  -->
<svg version="1.1" id="brush" xmlns="http://www.w3.org/2000/svg" xmlns:xlink="http://www.w3.org/1999/xlink" x="0px" y="0px"
	 width="75px" height="50px" viewBox="0 0 75 50" enable-background="new 0 0 75 50" xml:space="preserve">
<path d="M75.1,8.9H36.7c-3.1,0-5.6,2.5-5.6,5.6v1.7h-9.2c-3.1,0-5.6,2.5-5.6,5.6v0.6H7.8c-1.4,0-2.5,1.1-2.5,2.5s1.1,2.5,2.5,2.5
	h8.5v0.6c0,3.1,2.5,5.6,5.6,5.6h9.2v1.7c0,3.1,2.5,5.6,5.6,5.6h38.4c3.1,0,5.6-2.5,5.6-5.6v-21C80.7,11.4,78.2,8.9,75.1,8.9z
	 M21.9,28.7c-0.3,0-0.6-0.3-0.6-0.6v-6.3c0-0.3,0.3-0.6,0.6-0.6h9.2v7.5H21.9z M75.7,35.5c0,0.3-0.3,0.6-0.6,0.6H36.7
	c-0.3,0-0.6-0.3-0.6-0.6v-21c0-0.3,0.3-0.6,0.6-0.6h38.4c0.3,0,0.6,0.3,0.6,0.6V35.5z"/>
</svg>
