<?xml version="1.0" encoding="utf-8"?>
<!-- Generator: Adobe Illustrator 18.1.1, SVG Export Plug-In . SVG Version: 6.00 Build 0)  -->
<svg version="1.1" id="brush" xmlns="http://www.w3.org/2000/svg" xmlns:xlink="http://www.w3.org/1999/xlink" x="0px" y="0px"
	 width="75px" height="50px" viewBox="0 0 75 50" enable-background="new 0 0 75 50" xml:space="preserve">
<path d="M75.2,12.8H49.8c-0.7,0-1.4,0.1-2,0.4l-13.1,3.1c-2,0.1-3.6,1.3-4.5,2.9c-2.2-1.5-5.6-3.2-9.6-3.2c-4.3,0-7.1,3.3-9.5,6.2
	c-1.9,2.3-3.7,4.4-5.7,4.4c-1,0-1.9,0.6-2.3,1.5c-0.4,0.9-0.2,2,0.5,2.7c2.8,2.8,9.3,5.6,15.2,5.6c0.2,0,0.4,0,0.5,0
	c3.7-0.1,6.7-1.4,8.7-3.6c1-1,1.9-1.4,2.4-1.6c1,1.4,2.5,2.3,4.2,2.4l13.1,3.1c0.6,0.2,1.3,0.4,2,0.4h25.4c3.1,0,5.6-2.5,5.6-5.6
	V18.4C80.8,15.3,78.2,12.8,75.2,12.8z M35,28.7c-0.3,0-0.6-0.3-0.6-0.6v-6.3c0-0.3,0.3-0.6,0.6-0.6h0.3l9-2.1v11.7l-9-2.1H35z
	 M75.8,31.6c0,0.3-0.3,0.6-0.6,0.6H49.8c-0.1,0-0.1,0-0.2,0c0,0,0,0,0,0c-0.2-0.1-0.4-0.3-0.4-0.5V18.4c0-0.3,0.3-0.6,0.6-0.6h25.4
	c0.3,0,0.6,0.3,0.6,0.6V31.6z"/>
</svg>
