<?xml version="1.0" encoding="utf-8"?>
<!-- Generator: Adobe Illustrator 18.1.1, SVG Export Plug-In . SVG Version: 6.00 Build 0)  -->
<svg version="1.1" id="brush" xmlns="http://www.w3.org/2000/svg" xmlns:xlink="http://www.w3.org/1999/xlink" x="0px" y="0px"
	 width="75px" height="50px" viewBox="0 0 75 50" enable-background="new 0 0 75 50" xml:space="preserve">
<path d="M75.6,8.9H37.2c-3.1,0-5.6,2.5-5.6,5.6V15h-9.2c-2.3,0-4.3,1.5-5.1,3.8c-3.4,0.2-9.8,0.9-13.8,4.3c-0.6,0.5-0.9,1.3-0.9,2
	c0,0.8,0.4,1.5,1.1,1.9c0.2,0.2,5.4,3.6,13.6,4.1c0.9,2.2,2.8,3.8,5.1,3.8h9.2v0.5c0,3.1,2.5,5.6,5.6,5.6h38.4
	c3.1,0,5.6-2.5,5.6-5.6v-21C81.1,11.4,78.6,8.9,75.6,8.9z M22.4,30c-0.1,0-0.6-0.4-0.6-1.2v-7.6c0-0.8,0.4-1.2,0.6-1.2h9.2v10H22.4z
	 M76.1,35.5c0,0.3-0.3,0.6-0.6,0.6H37.2c-0.3,0-0.6-0.3-0.6-0.6v-21c0-0.3,0.3-0.6,0.6-0.6h38.4c0.3,0,0.6,0.3,0.6,0.6V35.5z"/>
</svg>
