<?xml version="1.0" encoding="utf-8"?>
<!-- Generator: Adobe Illustrator 18.1.1, SVG Export Plug-In . SVG Version: 6.00 Build 0)  -->
<svg version="1.1" id="Calque_1" xmlns="http://www.w3.org/2000/svg" xmlns:xlink="http://www.w3.org/1999/xlink" x="0px" y="0px"
	 width="75px" height="50px" viewBox="0 0 75 50" enable-background="new 0 0 75 50" xml:space="preserve">
<path d="M54.8,15.3H29.6l0.1-0.1c1-1,1-2.6,0-3.5c-1-1-2.6-1-3.5,0l-8.5,8.5c-1.4,1.4-2.2,3.3-2.2,5.3s0.8,3.9,2.2,5.3l8.6,8.6
	c0.5,0.5,1.1,0.7,1.8,0.7s1.3-0.2,1.8-0.7c1-1,1-2.6,0-3.5l-0.1-0.1h25.2c3.1,0,5.6-2.5,5.6-5.6v-9.2C60.4,17.8,57.9,15.3,54.8,15.3
	z M55.4,30.1c0,0.3-0.3,0.6-0.6,0.6H25c-0.1,0-0.2,0-0.3,0l-3.5-3.5c-1-1-1-2.6,0-3.5l3.4-3.4c0.1,0,0.2,0,0.4,0h29.8
	c0.3,0,0.6,0.3,0.6,0.6V30.1z"/>
</svg>
