<?xml version="1.0" encoding="utf-8"?>
<!-- Generator: Adobe Illustrator 18.1.1, SVG Export Plug-In . SVG Version: 6.00 Build 0)  -->
<svg version="1.1" id="Calque_1" xmlns="http://www.w3.org/2000/svg" xmlns:xlink="http://www.w3.org/1999/xlink" x="0px" y="0px"
	 width="75px" height="50px" viewBox="0 0 75 50" enable-background="new 0 0 75 50" xml:space="preserve">
<g>
	<path d="M49.2,21.1c-1.4,0-2.5,1.1-2.5,2.5v16c0,0.3-0.3,0.6-0.6,0.6H30c-0.3,0-0.6-0.3-0.6-0.6v-16c0-1.4-1.1-2.5-2.5-2.5
		s-2.5,1.1-2.5,2.5v16c0,3.1,2.5,5.6,5.6,5.6h16.1c3.1,0,5.6-2.5,5.6-5.6v-16C51.7,22.2,50.6,21.1,49.2,21.1z"/>
	<path d="M52.9,13.6h-8v-3.2c0-2.1-1.7-3.7-3.7-3.7h-6.4c-2.1,0-3.7,1.7-3.7,3.7v3.2H23c-1.4,0-2.5,1.1-2.5,2.5s1.1,2.5,2.5,2.5
		h29.9c1.4,0,2.5-1.1,2.5-2.5S54.3,13.6,52.9,13.6z M36.1,11.7h3.8v1.9h-3.8V11.7z"/>
</g>
</svg>
