<?xml version="1.0" encoding="utf-8"?>
<!-- Generator: Adobe Illustrator 18.1.1, SVG Export Plug-In . SVG Version: 6.00 Build 0)  -->
<svg version="1.1" id="Calque_1" xmlns="http://www.w3.org/2000/svg" xmlns:xlink="http://www.w3.org/1999/xlink" x="0px" y="0px"
	 width="75px" height="50px" viewBox="0 0 75 50" enable-background="new 0 0 75 50" xml:space="preserve">
<path d="M69.4,8.9h-13h-8.7H31H18c-3.1,0-5.6,2.5-5.6,5.6v21c0,3.1,2.5,5.6,5.6,5.6h13h16.7h8.7h13c3.1,0,5.6-2.5,5.6-5.6v-21
	C75,11.4,72.5,8.9,69.4,8.9z M17.5,35.5v-21c0-0.3,0.3-0.6,0.6-0.6h7.4c0,0.2,0,0.4,0,0.6v21c0,0.2,0,0.4,0,0.6H18
	C17.7,36.1,17.5,35.8,17.5,35.5z M31,36.1c-0.3,0-0.6-0.3-0.6-0.6v-21c0-0.3,0.3-0.6,0.6-0.6h16.7v22.1H31z"/>
</svg>
