<?xml version="1.0" encoding="utf-8"?>
<!-- Generator: Adobe Illustrator 18.1.1, SVG Export Plug-In . SVG Version: 6.00 Build 0)  -->
<svg version="1.1" id="Calque_1" xmlns="http://www.w3.org/2000/svg" xmlns:xlink="http://www.w3.org/1999/xlink" x="0px" y="0px"
	 width="75px" height="50px" viewBox="0 0 75 50" enable-background="new 0 0 75 50" xml:space="preserve">
<path d="M58.2,20.6l-8.6-8.6c-1-1-2.6-1-3.5,0c-1,1-1,2.6,0,3.5l0.1,0.1H21c-3.1,0-5.6,2.5-5.6,5.6v9.2c0,3.1,2.5,5.6,5.6,5.6h25.2
	l-0.1,0.1c-1,1-1,2.6,0,3.5c0.5,0.5,1.1,0.7,1.8,0.7s1.3-0.2,1.8-0.7l8.5-8.5c1.4-1.4,2.2-3.3,2.2-5.3
	C60.4,23.9,59.6,22.1,58.2,20.6z M54.7,27.7l-3.4,3.4c-0.1,0-0.2,0-0.4,0H21c-0.3,0-0.6-0.3-0.6-0.6v-9.2c0-0.3,0.3-0.6,0.6-0.6
	h29.8c0.1,0,0.2,0,0.3,0l3.5,3.5C55.7,25.2,55.7,26.7,54.7,27.7z"/>
</svg>
