<?xml version="1.0" encoding="utf-8"?>
<!-- Generator: Adobe Illustrator 18.1.1, SVG Export Plug-In . SVG Version: 6.00 Build 0)  -->
<svg version="1.1" id="Calque_1" xmlns="http://www.w3.org/2000/svg" xmlns:xlink="http://www.w3.org/1999/xlink" x="0px" y="0px"
	 width="500px" height="500px" viewBox="0 0 500 500" enable-background="new 0 0 500 500" xml:space="preserve">
<polygon id="shadow" fill="#008374" points="266.8,129.3 844.4,706.9 607.7,706.9 476.7,708.3 141.7,373.2 332,373.2 345,365.8 
	347,301 341,278 "/>
<path fill="#FFFFFF" d="M359,304.2c1.4-3,2-6.3,1.8-9.7c0-0.2,0-0.3,0-0.5s0-0.4-0.1-0.6c0-0.2,0-0.3-0.1-0.5
	c-0.3-2.2-1-4.4-2.2-6.4l-79.5-143.3c-8.1-14.6-23.6-23.7-40.5-23.7c-7.8,0-15.5,2-22.3,5.8L193.4,138c-22.3,12.4-30.3,40.5-18,62.8
	l77.4,139.5c2.5,4.4,6.3,7.9,10.7,9.9l0,0c1.2,0.6,2.5,1,3.8,1.4l13.5,4.7H150.4c-5.9,0-10.7,4.8-10.7,10.7s4.8,10.7,10.7,10.7
	h182.7c5.3,0,9.6-3.8,10.6-8.8c0.6-1,1-2,1.3-3.1L359,304.2z M194.3,190.3c-6.6-11.9-2.3-27,9.6-33.6l22.7-12.6
	c3.6-2,7.7-3.1,11.9-3.1c9,0,17.3,4.9,21.7,12.7l78.5,141.4l-64,35.5c-0.3,0.2-0.7,0.3-1.1,0.3l-1.2-0.4c-0.2-0.2-0.4-0.4-0.6-0.7
	L194.3,190.3z M332.7,323l-6,26.4l-25.6-8.9L332.7,323z"/>
</svg>
