<?xml version="1.0" encoding="utf-8"?>
<!-- Generator: Adobe Illustrator 18.1.1, SVG Export Plug-In . SVG Version: 6.00 Build 0)  -->
<svg version="1.1" id="Calque_1" xmlns="http://www.w3.org/2000/svg" xmlns:xlink="http://www.w3.org/1999/xlink" x="0px" y="0px"
	 width="500px" height="500px" viewBox="-261 263 500 500" enable-background="new -261 263 500 500" xml:space="preserve">
<g id="Calque_2">
	<polygon id="shadow" fill="#DBB71D" points="122,374 996,1251.2 802.7,1251.2 427,1251.2 -154,652 122,644.2 113,470 108,446 
		106,427.5 105,399 	"/>
</g>
<polygon fill="none" stroke="#FFFFFF" stroke-width="30" stroke-linecap="round" stroke-linejoin="round" stroke-miterlimit="10" points="
	-57,555 -57,470 -142,470 -142,555 -142,640 -57,640 28,640 28,555 "/>
<rect x="-142" y="385" fill="none" stroke="#FFFFFF" stroke-width="30" stroke-linecap="round" stroke-linejoin="round" stroke-miterlimit="10" width="85" height="85"/>
<polygon fill="none" stroke="#FFFFFF" stroke-width="30" stroke-linecap="round" stroke-linejoin="round" stroke-miterlimit="10" points="
	28,385 -57,385 -57,470 -57,555 28,555 28,470 113,470 113,385 "/>
<polygon fill="none" stroke="#FFFFFF" stroke-width="30" stroke-linecap="round" stroke-linejoin="round" stroke-miterlimit="10" points="
	28,470 28,555 28,640 113,640 113,555 113,470 "/>
</svg>
