<?xml version="1.0" encoding="utf-8"?>
<!-- Generator: Adobe Illustrator 18.1.1, SVG Export Plug-In . SVG Version: 6.00 Build 0)  -->
<svg version="1.1" id="Calque_1" xmlns="http://www.w3.org/2000/svg" xmlns:xlink="http://www.w3.org/1999/xlink" x="0px" y="0px"
	 width="500px" height="500px" viewBox="0 0 500 500" enable-background="new 0 0 500 500" xml:space="preserve">
<g>
	<path fill="#FFFFFF" d="M399.5,322c-10.1,0-18.2,8.1-18.2,18.2c0,10,8.1,18.1,18.2,18.1c10.1,0,18.2-8.2,18.2-18.1
		C417.7,330.1,409.6,322,399.5,322z"/>
	<path fill="#FFFFFF" d="M399.5,298.6c10.1,0,18.2-8.2,18.2-18.2c0-10.1-8.1-18.2-18.2-18.2c-10.1,0-18.2,8.2-18.2,18.2
		C381.3,290.4,389.5,298.6,399.5,298.6z"/>
	<path fill="#FFFFFF" d="M357.5,311.4c0-9.9-8.2-18-18-18h-165c-10,0-18,8.1-18,18c0,10,8.1,18,18,18h50.4c6.8,0,12.2,5.7,12.2,12.4
		c0,1.6-0.3,3.3-1,4.9l0,0.1l-77.3,118.8c-1.6,2.7-2.4,5.9-2.4,9c0,6.5,3.5,12.5,9,15.7c4.2,2.5,9.1,3.1,13.7,1.9
		c4.6-1.2,8.6-4.2,11-8.4l75.3-115.6l58.3,113.3c4.9,8.7,16.1,11.7,24.7,6.6c5.6-3.2,9-9.2,9-15.6c0-3.1-0.8-6.2-2.5-8.9L285,329.5
		h54.5C349.4,329.5,357.5,321.5,357.5,311.4z"/>
	<path fill="#FFFFFF" d="M299.4,17h-84.8c-32,0-58.1,26.1-58.1,58.1v119.8c0,32.1,26.1,58.1,58.1,58.1h84.8c32,0,58.1-26,58.1-58.1
		V75.1C357.5,43.1,331.5,17,299.4,17z M321.7,190.1c0,14.6-11.8,26.5-26.4,26.5h-76.6c-14.6,0-26.4-11.9-26.4-26.5V79.8
		c0-14.6,11.9-26.5,26.4-26.5h76.6c14.6,0,26.4,11.9,26.4,26.5V190.1z"/>
</g>
</svg>
