<?xml version="1.0" encoding="utf-8"?>
<!-- Generator: Adobe Illustrator 18.1.1, SVG Export Plug-In . SVG Version: 6.00 Build 0)  -->
<svg version="1.1" id="Calque_1" xmlns="http://www.w3.org/2000/svg" xmlns:xlink="http://www.w3.org/1999/xlink" x="0px" y="0px"
	 width="500px" height="500px" viewBox="0 0 500 500" enable-background="new 0 0 500 500" xml:space="preserve">
<polygon id="shadow" fill="#FFD000" points="224.5,93.6 993.2,862.3 910.5,861.7 612.3,861.7 141.8,391.1 182,378 130.2,314.9 
	180.3,301.7 134.3,255.8 170.7,261.3 213.3,245.3 250,224 252.7,196.7 218,103.3 "/>
<g>
	<g>
		<path fill="#FFFFFF" d="M167.5,273.4c-21,0-39.6-14.8-44.3-35.3L105,159.2c-2.7-11.8-0.7-24,5.8-34.3
			c6.5-10.3,16.5-17.5,28.3-20.2l55-12.7c3.3-0.8,6.8-1.2,10.2-1.2c21,0,39.6,14.8,44.3,35.3l18.2,78.9c5.6,24.4-9.7,48.9-34.1,54.5
			l-55,12.7C174.3,273,170.9,273.4,167.5,273.4z M204.2,117.7c-1.4,0-2.8,0.2-4.2,0.5l-55,12.7c-4.8,1.1-9,4.1-11.6,8.3
			c-2.7,4.3-3.5,9.3-2.4,14.1l18.2,78.9c2.2,9.8,12.5,16.3,22.4,14l55-12.7c10.1-2.3,16.4-12.4,14-22.4l-18.2-78.9
			C220.5,123.8,212.8,117.7,204.2,117.7z"/>
	</g>
	<g>
		<path fill="#FFFFFF" d="M141.6,321.3c-6.2,0-11.7-4.3-13.1-10.5c-1.6-7.2,3-14.3,10.2-15.9l135.6-29.4c7.2-1.6,14.3,3,15.9,10.2
			c1.6,7.2-3,14.3-10.2,15.9L144.4,321C143.5,321.2,142.5,321.3,141.6,321.3z"/>
	</g>
	<g>
		<path fill="#FFFFFF" d="M156.2,403.5c-7.3,0-13.3-5.9-13.4-13.2c-0.1-7.4,5.8-13.4,13.2-13.5l0,0c0.3,0,25.5-0.6,38.4-15.4
			c6.5-7.4,8.9-17.3,7.3-30.4l-1.3-11.1l10.7-3.3c25.1-7.7,46.7-6,64.2,4.9c27.9,17.5,33.6,52.3,33.8,53.7
			c1.1,7.3-3.9,14.1-11.2,15.3c-7.3,1.2-14.1-3.9-15.2-11.2c0-0.2-4.2-24.3-21.7-35.2c-8.5-5.3-19.3-6.7-32.1-4.4
			c-0.3,15.5-5.1,28.7-14.5,39.3c-20.9,23.7-56.6,24.4-58.1,24.4C156.3,403.5,156.2,403.5,156.2,403.5z"/>
	</g>
</g>
</svg>
