<?xml version="1.0" encoding="utf-8"?>
<!-- Generator: Adobe Illustrator 18.1.1, SVG Export Plug-In . SVG Version: 6.00 Build 0)  -->
<svg version="1.1" id="Calque_1" xmlns="http://www.w3.org/2000/svg" xmlns:xlink="http://www.w3.org/1999/xlink" x="0px" y="0px"
	 width="500px" height="500px" viewBox="225 -225 500 500" enable-background="new 225 -225 500 500" xml:space="preserve">
<polyline id="shadow" fill="#1E4943" points="614,-84.2 1016.4,318.2 969.2,317.6 846.5,317.6 528.9,0.2 "/>
<circle opacity="0.1" fill="#FFFFFF" enable-background="new    " cx="616.8" cy="3.4" r="60"/>
<circle opacity="0.3" fill="#FFFFFF" enable-background="new    " cx="595.5" cy="-17.9" r="60"/>
<rect x="395.1" y="-136.5" fill="none" stroke="#FFFFFF" stroke-width="20" stroke-linecap="round" stroke-linejoin="round" stroke-miterlimit="10" width="149.5" height="149.5"/>
<line fill="none" stroke="#FFFFFF" stroke-width="20" stroke-linecap="round" stroke-linejoin="round" stroke-miterlimit="10" x1="381.6" y1="48" x2="557.8" y2="48"/>
<path fill="none" stroke="#FFFFFF" stroke-width="10" stroke-linecap="round" stroke-linejoin="round" stroke-miterlimit="10" d="
	M434.5,202.5c0-78.8-43.2-134.1-43.2-134.1s69.9,61.4,119.3,73.1"/>
<path fill="none" stroke="#FFFFFF" stroke-width="10" stroke-linecap="round" stroke-linejoin="round" stroke-miterlimit="10" d="
	M414.8,110.1c0,0,16.5-6.8,54.9-41.7"/>
<path fill="none" stroke="#FFFFFF" stroke-width="10" stroke-linecap="round" stroke-linejoin="round" stroke-miterlimit="10" d="
	M505.3,154c-34.7,32.2-67.8,50.9-70.2,48.5"/>
<path fill="none" stroke="#FFFFFF" stroke-width="10" stroke-linecap="round" stroke-linejoin="round" stroke-miterlimit="10" d="
	M429,153.7c0,0,66.4-36.8,116.3-85.3c0,0-43.2,55.3-43.2,134.1"/>
<path fill="none" stroke="#FFFFFF" stroke-width="10" stroke-linecap="round" stroke-linejoin="round" stroke-miterlimit="10" d="
	M502.3,202.5c-2.5,2.4-28.5-16.4-63.2-48.5"/>
<path fill="none" stroke="#FFFFFF" stroke-width="10" stroke-linecap="round" stroke-linejoin="round" stroke-miterlimit="10" d="
	M520.5,110.1c0,0-12.5-6.8-50.9-41.7"/>
<circle fill="#FFFFFF" cx="574.2" cy="-39.2" r="60"/>
</svg>
