<?xml version="1.0" encoding="utf-8"?>
<!-- Generator: Adobe Illustrator 18.1.1, SVG Export Plug-In . SVG Version: 6.00 Build 0)  -->
<svg version="1.1" id="Calque_1" xmlns="http://www.w3.org/2000/svg" xmlns:xlink="http://www.w3.org/1999/xlink" x="0px" y="0px"
	 width="500px" height="500px" viewBox="-261 263 500 500" enable-background="new -261 263 500 500" xml:space="preserve">
<path id="shadow" fill="#1E4943" d="M92.6,384.1l920.5,920.5l-122.7,22.7L575,1323l-726.5-726c0,0-72.2-157.2,38-233
	S92.6,384.1,92.6,384.1z"/>
<circle fill="none" stroke="#FFFFFF" stroke-width="30" stroke-miterlimit="10" cx="-25.9" cy="493.1" r="147.7"/>
<path fill="none" stroke="#FFFFFF" stroke-width="30" stroke-miterlimit="10" d="M-151.5,415.4c34,18.9,60.6,51.2,71.2,91.9
	c10.3,39.5,3.6,79.4-15.6,112"/>
<path fill="none" stroke="#FFFFFF" stroke-width="30" stroke-miterlimit="10" d="M99.8,570.9c-34.1-18.9-60.7-51.2-71.3-92
	C18,438.2,25.4,397.1,45.9,364"/>
<line fill="none" stroke="#FFFFFF" stroke-width="30" stroke-miterlimit="10" x1="13.7" y1="645.3" x2="-65" y2="342.9"/>
<line fill="none" stroke="#FFFFFF" stroke-width="30" stroke-miterlimit="10" x1="117.1" y1="455.9" x2="-168.9" y2="530.3"/>
</svg>
